<svg viewBox="0 0 600 700" fill="none" xmlns="http://www.w3.org/2000/svg">
  <defs>
    <!-- Atmosphere -->
    <radialGradient id="bg1" cx="40%" cy="52%" r="65%">
      <stop offset="0%"   stop-color="#FFF8CC" stop-opacity="0.65"/>
      <stop offset="40%"  stop-color="#FFE566" stop-opacity="0.32"/>
      <stop offset="100%" stop-color="#D4A020" stop-opacity="0"/>
    </radialGradient>
    <radialGradient id="bg2" cx="72%" cy="28%" r="52%">
      <stop offset="0%"   stop-color="#FFF5A0" stop-opacity="0.38"/>
      <stop offset="100%" stop-color="#FFE566" stop-opacity="0"/>
    </radialGradient>

    <!-- Well interior glow (very bright like reference) -->
    <radialGradient id="wellGlow" cx="50%" cy="45%" r="55%">
      <stop offset="0%"   stop-color="#FFFFFF"  stop-opacity="1.00"/>
      <stop offset="18%"  stop-color="#FFFCE0"  stop-opacity="0.95"/>
      <stop offset="45%"  stop-color="#FFE566"  stop-opacity="0.80"/>
      <stop offset="75%"  stop-color="#F0C030"  stop-opacity="0.50"/>
      <stop offset="100%" stop-color="#C8A020"  stop-opacity="0.08"/>
    </radialGradient>

    <!-- Cylinder horizontal shading (edges dark, centre warm-bright) -->
    <linearGradient id="cylShade" x1="0" y1="0" x2="1" y2="0">
      <stop offset="0%"   stop-color="#3C2804" stop-opacity="0.50"/>
      <stop offset="16%"  stop-color="#B88020" stop-opacity="0.16"/>
      <stop offset="46%"  stop-color="#FFE888" stop-opacity="0.24"/>
      <stop offset="76%"  stop-color="#A07010" stop-opacity="0.14"/>
      <stop offset="100%" stop-color="#3C2804" stop-opacity="0.55"/>
    </linearGradient>

    <!-- Stone colour variants (warm sandy golden) -->
    <linearGradient id="sa" x1="0" y1="0" x2="0" y2="1">
      <stop offset="0%"   stop-color="#E2C870"/>
      <stop offset="100%" stop-color="#BCA042"/>
    </linearGradient>
    <linearGradient id="sb" x1="0" y1="0" x2="0" y2="1">
      <stop offset="0%"   stop-color="#D6B860"/>
      <stop offset="100%" stop-color="#B09038"/>
    </linearGradient>
    <linearGradient id="sc" x1="0" y1="0" x2="0" y2="1">
      <stop offset="0%"   stop-color="#E4CC7A"/>
      <stop offset="100%" stop-color="#C0A44A"/>
    </linearGradient>
    <linearGradient id="sd" x1="0" y1="0" x2="0" y2="1">
      <stop offset="0%"   stop-color="#CAA852"/>
      <stop offset="100%" stop-color="#A48030"/>
    </linearGradient>

    <!-- Rim top face -->
    <radialGradient id="rimFace" cx="48%" cy="48%" r="52%">
      <stop offset="0%"   stop-color="#FFF8D0"/>
      <stop offset="38%"  stop-color="#F0D860"/>
      <stop offset="80%"  stop-color="#D4B040"/>
      <stop offset="100%" stop-color="#AA8020"/>
    </radialGradient>

    <!-- Wood (posts, horizontal) -->
    <linearGradient id="postGrad" x1="0" y1="0" x2="1" y2="0">
      <stop offset="0%"   stop-color="#7A5C08"/>
      <stop offset="28%"  stop-color="#C8A030"/>
      <stop offset="60%"  stop-color="#ECC84C"/>
      <stop offset="100%" stop-color="#886008"/>
    </linearGradient>
    <linearGradient id="beamGrad" x1="0" y1="0" x2="1" y2="0">
      <stop offset="0%"   stop-color="#8A6A10"/>
      <stop offset="25%"  stop-color="#D8B438"/>
      <stop offset="60%"  stop-color="#C49228"/>
      <stop offset="88%"  stop-color="#DEBB46"/>
      <stop offset="100%" stop-color="#886808"/>
    </linearGradient>

    <!-- Axle -->
    <linearGradient id="axleGrad" x1="0" y1="0" x2="0" y2="1">
      <stop offset="0%"   stop-color="#F2D452"/>
      <stop offset="42%"  stop-color="#C8A030"/>
      <stop offset="100%" stop-color="#8E6A10"/>
    </linearGradient>

    <!-- Roof: light right face -->
    <linearGradient id="roofR" x1="0" y1="0" x2="0" y2="1">
      <stop offset="0%"   stop-color="#F4D060"/>
      <stop offset="55%"  stop-color="#D6AA38"/>
      <stop offset="100%" stop-color="#AC8018"/>
    </linearGradient>
    <!-- Roof: shadow left face -->
    <linearGradient id="roofL" x1="0" y1="0" x2="0" y2="1">
      <stop offset="0%"   stop-color="#CAA030"/>
      <stop offset="100%" stop-color="#806010"/>
    </linearGradient>

    <!-- Filters -->
    <filter id="b18" x="-80%" y="-80%" width="260%" height="260%">
      <feGaussianBlur stdDeviation="18"/>
    </filter>
    <filter id="b12" x="-60%" y="-60%" width="220%" height="220%">
      <feGaussianBlur stdDeviation="12"/>
    </filter>
    <filter id="b7" x="-40%" y="-40%" width="180%" height="180%">
      <feGaussianBlur stdDeviation="7"/>
    </filter>
    <filter id="sg" x="-160%" y="-160%" width="420%" height="420%">
      <feGaussianBlur stdDeviation="4" result="b"/>
      <feMerge><feMergeNode in="b"/><feMergeNode in="SourceGraphic"/></feMerge>
    </filter>

    <!-- Clip: visible front face of stone cylinder -->
    <clipPath id="cyl">
      <path d="M 110 396 A 190 40 0 0 1 490 396 L 490 590 A 190 32 0 0 1 110 590 Z"/>
    </clipPath>
    <!-- Roof face clips (for plank lines) -->
    <clipPath id="rRight">
      <polygon points="300,58 516,208 300,208"/>
    </clipPath>
    <clipPath id="rLeft">
      <polygon points="300,58 84,208 300,208"/>
    </clipPath>
  </defs>

  <!-- ══ BACKGROUND ATMOSPHERE ══ -->
  <ellipse cx="215" cy="345" rx="270" ry="225" fill="url(#bg1)" filter="url(#b18)"/>
  <ellipse cx="420" cy="195" rx="190" ry="160" fill="url(#bg2)" filter="url(#b12)"/>

  <!-- Bokeh orbs -->
  <circle cx="60"  cy="305" r="44" fill="#FFF0A0" fill-opacity="0.22" filter="url(#b18)"/>
  <circle cx="35"  cy="420" r="30" fill="#FFE040" fill-opacity="0.18" filter="url(#b18)"/>
  <circle cx="85"  cy="510" r="24" fill="#FFD030" fill-opacity="0.14" filter="url(#b12)"/>
  <circle cx="530" cy="295" r="36" fill="#FFF0A0" fill-opacity="0.18" filter="url(#b18)"/>
  <circle cx="560" cy="420" r="26" fill="#FFD040" fill-opacity="0.15" filter="url(#b18)"/>
  <circle cx="172" cy="148" r="22" fill="#FFF5A0" fill-opacity="0.26" filter="url(#b12)"/>
  <circle cx="425" cy="165" r="20" fill="#FFF0A0" fill-opacity="0.22" filter="url(#b12)"/>
  <circle cx="55"  cy="208" r="18" fill="#FFE566" fill-opacity="0.22" filter="url(#b12)"/>
  <circle cx="540" cy="238" r="24" fill="#FFE566" fill-opacity="0.16" filter="url(#b12)"/>
  <circle cx="140" cy="455" r="16" fill="#FFC830" fill-opacity="0.18" filter="url(#b12)"/>
  <circle cx="475" cy="480" r="20" fill="#FFD040" fill-opacity="0.15" filter="url(#b12)"/>

  <!-- Central glow emanating from the well interior (very prominent like reference) -->
  <ellipse cx="300" cy="375" rx="138" ry="88"  fill="#FFF8CC" fill-opacity="0.58" filter="url(#b18)"/>
  <ellipse cx="300" cy="368" rx="88"  ry="55"  fill="#FFFADC" fill-opacity="0.68" filter="url(#b12)"/>
  <ellipse cx="300" cy="360" rx="52"  ry="32"  fill="#FFFFFF"  fill-opacity="0.72" filter="url(#b7)"/>

  <!-- ══ GROUND SHADOW ══ -->
  <ellipse cx="300" cy="612" rx="180" ry="30" fill="rgba(90,62,6,0.26)"/>

  <!-- ══ PLANTS ══ -->
  <path d="M 132 582 C 120 560 114 538 108 518" stroke="#8A7820" stroke-width="3.2" stroke-linecap="round" fill="none"/>
  <path d="M 143 586 C 128 558 120 532 110 512" stroke="#786A18" stroke-width="2.6" stroke-linecap="round" fill="none"/>
  <path d="M 124 588 C 106 568  93 550  84 532" stroke="#9A8828" stroke-width="2.4" stroke-linecap="round" fill="none"/>
  <path d="M 154 580 C 147 558 152 536 158 518" stroke="#8A7820" stroke-width="2.2" stroke-linecap="round" fill="none"/>
  <path d="M 116 590 C 102 574  90 560  80 544" stroke="#706015" stroke-width="2.0" stroke-linecap="round" fill="none"/>

  <path d="M 468 582 C 480 560 486 538 492 518" stroke="#8A7820" stroke-width="3.2" stroke-linecap="round" fill="none"/>
  <path d="M 457 586 C 472 558 480 532 490 512" stroke="#786A18" stroke-width="2.6" stroke-linecap="round" fill="none"/>
  <path d="M 476 588 C 494 568 507 550 516 532" stroke="#9A8828" stroke-width="2.4" stroke-linecap="round" fill="none"/>
  <path d="M 446 580 C 453 558 448 536 442 518" stroke="#8A7820" stroke-width="2.2" stroke-linecap="round" fill="none"/>
  <path d="M 484 590 C 498 574 510 560 520 544" stroke="#706015" stroke-width="2.0" stroke-linecap="round" fill="none"/>

  <!-- ══ STONE CYLINDER ══ -->
  <!-- Back/shadow bottom ellipse -->
  <ellipse cx="300" cy="590" rx="190" ry="32" fill="#8A6408"/>

  <!-- Clipped stone brick rows -->
  <g clip-path="url(#cyl)">
    <rect x="110" y="396" width="380" height="194" fill="#C8A840"/>

    <!-- row 0 even  y=396  stones every 48px from x=110 -->
    <rect x="110" y="397" width="46" height="17" rx="2.5" fill="url(#sa)" stroke="rgba(65,44,4,0.22)" stroke-width="1"/>
    <rect x="158" y="397" width="46" height="17" rx="2.5" fill="url(#sc)" stroke="rgba(65,44,4,0.22)" stroke-width="1"/>
    <rect x="206" y="397" width="46" height="17" rx="2.5" fill="url(#sb)" stroke="rgba(65,44,4,0.22)" stroke-width="1"/>
    <rect x="254" y="397" width="46" height="17" rx="2.5" fill="url(#sd)" stroke="rgba(65,44,4,0.22)" stroke-width="1"/>
    <rect x="302" y="397" width="46" height="17" rx="2.5" fill="url(#sc)" stroke="rgba(65,44,4,0.22)" stroke-width="1"/>
    <rect x="350" y="397" width="46" height="17" rx="2.5" fill="url(#sa)" stroke="rgba(65,44,4,0.22)" stroke-width="1"/>
    <rect x="398" y="397" width="46" height="17" rx="2.5" fill="url(#sd)" stroke="rgba(65,44,4,0.22)" stroke-width="1"/>
    <rect x="446" y="397" width="46" height="17" rx="2.5" fill="url(#sb)" stroke="rgba(65,44,4,0.22)" stroke-width="1"/>

    <!-- row 1 odd   y=416  offset +24 -->
    <rect x="86"  y="416" width="46" height="17" rx="2.5" fill="url(#sb)" stroke="rgba(65,44,4,0.22)" stroke-width="1"/>
    <rect x="134" y="416" width="46" height="17" rx="2.5" fill="url(#sd)" stroke="rgba(65,44,4,0.22)" stroke-width="1"/>
    <rect x="182" y="416" width="46" height="17" rx="2.5" fill="url(#sa)" stroke="rgba(65,44,4,0.22)" stroke-width="1"/>
    <rect x="230" y="416" width="46" height="17" rx="2.5" fill="url(#sc)" stroke="rgba(65,44,4,0.22)" stroke-width="1"/>
    <rect x="278" y="416" width="46" height="17" rx="2.5" fill="url(#sb)" stroke="rgba(65,44,4,0.22)" stroke-width="1"/>
    <rect x="326" y="416" width="46" height="17" rx="2.5" fill="url(#sd)" stroke="rgba(65,44,4,0.22)" stroke-width="1"/>
    <rect x="374" y="416" width="46" height="17" rx="2.5" fill="url(#sa)" stroke="rgba(65,44,4,0.22)" stroke-width="1"/>
    <rect x="422" y="416" width="46" height="17" rx="2.5" fill="url(#sc)" stroke="rgba(65,44,4,0.22)" stroke-width="1"/>
    <rect x="470" y="416" width="46" height="17" rx="2.5" fill="url(#sb)" stroke="rgba(65,44,4,0.22)" stroke-width="1"/>

    <!-- row 2 even  y=435 -->
    <rect x="110" y="435" width="46" height="17" rx="2.5" fill="url(#sd)" stroke="rgba(65,44,4,0.22)" stroke-width="1"/>
    <rect x="158" y="435" width="46" height="17" rx="2.5" fill="url(#sa)" stroke="rgba(65,44,4,0.22)" stroke-width="1"/>
    <rect x="206" y="435" width="46" height="17" rx="2.5" fill="url(#sc)" stroke="rgba(65,44,4,0.22)" stroke-width="1"/>
    <rect x="254" y="435" width="46" height="17" rx="2.5" fill="url(#sb)" stroke="rgba(65,44,4,0.22)" stroke-width="1"/>
    <rect x="302" y="435" width="46" height="17" rx="2.5" fill="url(#sd)" stroke="rgba(65,44,4,0.22)" stroke-width="1"/>
    <rect x="350" y="435" width="46" height="17" rx="2.5" fill="url(#sc)" stroke="rgba(65,44,4,0.22)" stroke-width="1"/>
    <rect x="398" y="435" width="46" height="17" rx="2.5" fill="url(#sa)" stroke="rgba(65,44,4,0.22)" stroke-width="1"/>
    <rect x="446" y="435" width="46" height="17" rx="2.5" fill="url(#sb)" stroke="rgba(65,44,4,0.22)" stroke-width="1"/>

    <!-- row 3 odd   y=454 -->
    <rect x="86"  y="454" width="46" height="17" rx="2.5" fill="url(#sc)" stroke="rgba(65,44,4,0.22)" stroke-width="1"/>
    <rect x="134" y="454" width="46" height="17" rx="2.5" fill="url(#sb)" stroke="rgba(65,44,4,0.22)" stroke-width="1"/>
    <rect x="182" y="454" width="46" height="17" rx="2.5" fill="url(#sd)" stroke="rgba(65,44,4,0.22)" stroke-width="1"/>
    <rect x="230" y="454" width="46" height="17" rx="2.5" fill="url(#sa)" stroke="rgba(65,44,4,0.22)" stroke-width="1"/>
    <rect x="278" y="454" width="46" height="17" rx="2.5" fill="url(#sc)" stroke="rgba(65,44,4,0.22)" stroke-width="1"/>
    <rect x="326" y="454" width="46" height="17" rx="2.5" fill="url(#sb)" stroke="rgba(65,44,4,0.22)" stroke-width="1"/>
    <rect x="374" y="454" width="46" height="17" rx="2.5" fill="url(#sd)" stroke="rgba(65,44,4,0.22)" stroke-width="1"/>
    <rect x="422" y="454" width="46" height="17" rx="2.5" fill="url(#sa)" stroke="rgba(65,44,4,0.22)" stroke-width="1"/>
    <rect x="470" y="454" width="46" height="17" rx="2.5" fill="url(#sc)" stroke="rgba(65,44,4,0.22)" stroke-width="1"/>

    <!-- row 4 even  y=473 -->
    <rect x="110" y="473" width="46" height="17" rx="2.5" fill="url(#sb)" stroke="rgba(65,44,4,0.22)" stroke-width="1"/>
    <rect x="158" y="473" width="46" height="17" rx="2.5" fill="url(#sd)" stroke="rgba(65,44,4,0.22)" stroke-width="1"/>
    <rect x="206" y="473" width="46" height="17" rx="2.5" fill="url(#sa)" stroke="rgba(65,44,4,0.22)" stroke-width="1"/>
    <rect x="254" y="473" width="46" height="17" rx="2.5" fill="url(#sc)" stroke="rgba(65,44,4,0.22)" stroke-width="1"/>
    <rect x="302" y="473" width="46" height="17" rx="2.5" fill="url(#sb)" stroke="rgba(65,44,4,0.22)" stroke-width="1"/>
    <rect x="350" y="473" width="46" height="17" rx="2.5" fill="url(#sd)" stroke="rgba(65,44,4,0.22)" stroke-width="1"/>
    <rect x="398" y="473" width="46" height="17" rx="2.5" fill="url(#sa)" stroke="rgba(65,44,4,0.22)" stroke-width="1"/>
    <rect x="446" y="473" width="46" height="17" rx="2.5" fill="url(#sc)" stroke="rgba(65,44,4,0.22)" stroke-width="1"/>

    <!-- row 5 odd   y=492 -->
    <rect x="86"  y="492" width="46" height="17" rx="2.5" fill="url(#sa)" stroke="rgba(65,44,4,0.22)" stroke-width="1"/>
    <rect x="134" y="492" width="46" height="17" rx="2.5" fill="url(#sc)" stroke="rgba(65,44,4,0.22)" stroke-width="1"/>
    <rect x="182" y="492" width="46" height="17" rx="2.5" fill="url(#sb)" stroke="rgba(65,44,4,0.22)" stroke-width="1"/>
    <rect x="230" y="492" width="46" height="17" rx="2.5" fill="url(#sd)" stroke="rgba(65,44,4,0.22)" stroke-width="1"/>
    <rect x="278" y="492" width="46" height="17" rx="2.5" fill="url(#sa)" stroke="rgba(65,44,4,0.22)" stroke-width="1"/>
    <rect x="326" y="492" width="46" height="17" rx="2.5" fill="url(#sc)" stroke="rgba(65,44,4,0.22)" stroke-width="1"/>
    <rect x="374" y="492" width="46" height="17" rx="2.5" fill="url(#sd)" stroke="rgba(65,44,4,0.22)" stroke-width="1"/>
    <rect x="422" y="492" width="46" height="17" rx="2.5" fill="url(#sb)" stroke="rgba(65,44,4,0.22)" stroke-width="1"/>
    <rect x="470" y="492" width="46" height="17" rx="2.5" fill="url(#sa)" stroke="rgba(65,44,4,0.22)" stroke-width="1"/>

    <!-- row 6 even  y=511 -->
    <rect x="110" y="511" width="46" height="17" rx="2.5" fill="url(#sc)" stroke="rgba(65,44,4,0.22)" stroke-width="1"/>
    <rect x="158" y="511" width="46" height="17" rx="2.5" fill="url(#sb)" stroke="rgba(65,44,4,0.22)" stroke-width="1"/>
    <rect x="206" y="511" width="46" height="17" rx="2.5" fill="url(#sd)" stroke="rgba(65,44,4,0.22)" stroke-width="1"/>
    <rect x="254" y="511" width="46" height="17" rx="2.5" fill="url(#sa)" stroke="rgba(65,44,4,0.22)" stroke-width="1"/>
    <rect x="302" y="511" width="46" height="17" rx="2.5" fill="url(#sc)" stroke="rgba(65,44,4,0.22)" stroke-width="1"/>
    <rect x="350" y="511" width="46" height="17" rx="2.5" fill="url(#sb)" stroke="rgba(65,44,4,0.22)" stroke-width="1"/>
    <rect x="398" y="511" width="46" height="17" rx="2.5" fill="url(#sd)" stroke="rgba(65,44,4,0.22)" stroke-width="1"/>
    <rect x="446" y="511" width="46" height="17" rx="2.5" fill="url(#sa)" stroke="rgba(65,44,4,0.22)" stroke-width="1"/>

    <!-- row 7 odd   y=530 -->
    <rect x="86"  y="530" width="46" height="17" rx="2.5" fill="url(#sd)" stroke="rgba(65,44,4,0.22)" stroke-width="1"/>
    <rect x="134" y="530" width="46" height="17" rx="2.5" fill="url(#sa)" stroke="rgba(65,44,4,0.22)" stroke-width="1"/>
    <rect x="182" y="530" width="46" height="17" rx="2.5" fill="url(#sc)" stroke="rgba(65,44,4,0.22)" stroke-width="1"/>
    <rect x="230" y="530" width="46" height="17" rx="2.5" fill="url(#sb)" stroke="rgba(65,44,4,0.22)" stroke-width="1"/>
    <rect x="278" y="530" width="46" height="17" rx="2.5" fill="url(#sd)" stroke="rgba(65,44,4,0.22)" stroke-width="1"/>
    <rect x="326" y="530" width="46" height="17" rx="2.5" fill="url(#sa)" stroke="rgba(65,44,4,0.22)" stroke-width="1"/>
    <rect x="374" y="530" width="46" height="17" rx="2.5" fill="url(#sc)" stroke="rgba(65,44,4,0.22)" stroke-width="1"/>
    <rect x="422" y="530" width="46" height="17" rx="2.5" fill="url(#sb)" stroke="rgba(65,44,4,0.22)" stroke-width="1"/>
    <rect x="470" y="530" width="46" height="17" rx="2.5" fill="url(#sd)" stroke="rgba(65,44,4,0.22)" stroke-width="1"/>

    <!-- row 8 even  y=549 -->
    <rect x="110" y="549" width="46" height="17" rx="2.5" fill="url(#sa)" stroke="rgba(65,44,4,0.22)" stroke-width="1"/>
    <rect x="158" y="549" width="46" height="17" rx="2.5" fill="url(#sd)" stroke="rgba(65,44,4,0.22)" stroke-width="1"/>
    <rect x="206" y="549" width="46" height="17" rx="2.5" fill="url(#sc)" stroke="rgba(65,44,4,0.22)" stroke-width="1"/>
    <rect x="254" y="549" width="46" height="17" rx="2.5" fill="url(#sb)" stroke="rgba(65,44,4,0.22)" stroke-width="1"/>
    <rect x="302" y="549" width="46" height="17" rx="2.5" fill="url(#sa)" stroke="rgba(65,44,4,0.22)" stroke-width="1"/>
    <rect x="350" y="549" width="46" height="17" rx="2.5" fill="url(#sd)" stroke="rgba(65,44,4,0.22)" stroke-width="1"/>
    <rect x="398" y="549" width="46" height="17" rx="2.5" fill="url(#sc)" stroke="rgba(65,44,4,0.22)" stroke-width="1"/>
    <rect x="446" y="549" width="46" height="17" rx="2.5" fill="url(#sb)" stroke="rgba(65,44,4,0.22)" stroke-width="1"/>

    <!-- row 9 odd   y=568 -->
    <rect x="86"  y="568" width="46" height="17" rx="2.5" fill="url(#sc)" stroke="rgba(65,44,4,0.22)" stroke-width="1"/>
    <rect x="134" y="568" width="46" height="17" rx="2.5" fill="url(#sb)" stroke="rgba(65,44,4,0.22)" stroke-width="1"/>
    <rect x="182" y="568" width="46" height="17" rx="2.5" fill="url(#sd)" stroke="rgba(65,44,4,0.22)" stroke-width="1"/>
    <rect x="230" y="568" width="46" height="17" rx="2.5" fill="url(#sa)" stroke="rgba(65,44,4,0.22)" stroke-width="1"/>
    <rect x="278" y="568" width="46" height="17" rx="2.5" fill="url(#sc)" stroke="rgba(65,44,4,0.22)" stroke-width="1"/>
    <rect x="326" y="568" width="46" height="17" rx="2.5" fill="url(#sb)" stroke="rgba(65,44,4,0.22)" stroke-width="1"/>
    <rect x="374" y="568" width="46" height="17" rx="2.5" fill="url(#sd)" stroke="rgba(65,44,4,0.22)" stroke-width="1"/>
    <rect x="422" y="568" width="46" height="17" rx="2.5" fill="url(#sa)" stroke="rgba(65,44,4,0.22)" stroke-width="1"/>
    <rect x="470" y="568" width="46" height="17" rx="2.5" fill="url(#sc)" stroke="rgba(65,44,4,0.22)" stroke-width="1"/>

    <!-- Curved edge shading overlay -->
    <rect x="110" y="396" width="380" height="194" fill="url(#cylShade)"/>
  </g>

  <!-- Cylinder bottom front lip -->
  <ellipse cx="300" cy="590" rx="190" ry="32" fill="#907010" fill-opacity="0.58" stroke="#6A5008" stroke-width="1.2"/>

  <!-- ══ STONE RIM ══ -->
  <!-- Rim side depth -->
  <ellipse cx="300" cy="412" rx="218" ry="46" fill="#987218"/>
  <!-- Rim top face (wide, prominent) -->
  <ellipse cx="300" cy="394" rx="218" ry="46" fill="url(#rimFace)" stroke="#C8A020" stroke-width="1.8"/>
  <!-- Inner dark opening -->
  <ellipse cx="300" cy="391" rx="186" ry="38" fill="#261A04"/>
  <!-- Interior golden glow (very bright, matching reference) -->
  <ellipse cx="300" cy="388" rx="172" ry="34" fill="url(#wellGlow)" opacity="0.96"/>
  <!-- Deep dark centre -->
  <ellipse cx="300" cy="384" rx="125" ry="24" fill="#0A0804" fill-opacity="0.92"/>
  <!-- Rim inner edge highlight -->
  <ellipse cx="300" cy="387" rx="172" ry="32" fill="none" stroke="#FFFFF8" stroke-width="1.8" stroke-opacity="0.28"/>

  <!-- ══ WOODEN POSTS ══ -->
  <!-- Left post shadow -->
  <rect x="164" y="188" width="32" height="208" rx="6" fill="rgba(50,35,4,0.30)"/>
  <!-- Left post body -->
  <rect x="160" y="184" width="32" height="208" rx="6" fill="url(#postGrad)"/>
  <!-- Left post highlight stripe -->
  <rect x="165" y="187" width="8" height="202" rx="4" fill="rgba(255,230,100,0.22)"/>

  <!-- Right post shadow -->
  <rect x="406" y="188" width="32" height="208" rx="6" fill="rgba(50,35,4,0.30)"/>
  <!-- Right post body -->
  <rect x="402" y="184" width="32" height="208" rx="6" fill="url(#postGrad)"/>
  <!-- Right post highlight stripe -->
  <rect x="407" y="187" width="8" height="202" rx="4" fill="rgba(255,230,100,0.22)"/>

  <!-- ══ AXLE / ROLLER ══ -->
  <!-- Axle shadow -->
  <rect x="188" y="238" width="228" height="28" rx="14" fill="rgba(50,35,4,0.32)"/>
  <!-- Axle body -->
  <rect x="185" y="228" width="234" height="28" rx="14" fill="url(#axleGrad)"/>
  <!-- Axle top highlight (makes it look cylindrical) -->
  <rect x="190" y="231" width="224" height="8" rx="4" fill="rgba(255,245,130,0.42)"/>
  <!-- Axle end caps -->
  <ellipse cx="185" cy="242" rx="7" ry="14" fill="#B89030"/>
  <ellipse cx="419" cy="242" rx="7" ry="14" fill="#B89030"/>
  <!-- Rope wind lines on axle -->
  <line x1="272" y1="229" x2="272" y2="256" stroke="rgba(110,82,8,0.38)" stroke-width="3.5"/>
  <line x1="300" y1="229" x2="300" y2="256" stroke="rgba(110,82,8,0.38)" stroke-width="3.5"/>
  <line x1="328" y1="229" x2="328" y2="256" stroke="rgba(110,82,8,0.38)" stroke-width="3.5"/>

  <!-- ══ CRANK HANDLE (right side) ══ -->
  <!-- Horizontal arm from axle -->
  <line x1="419" y1="242" x2="462" y2="242" stroke="#B89030" stroke-width="10" stroke-linecap="round"/>
  <!-- Pivot joint -->
  <circle cx="460" cy="242" r="10" fill="#C8A030"/>
  <circle cx="460" cy="242" r="6.5" fill="#ECC850"/>
  <!-- Diagonal arm -->
  <line x1="460" y1="242" x2="480" y2="282" stroke="#B89030" stroke-width="9" stroke-linecap="round"/>
  <!-- Vertical grip -->
  <line x1="480" y1="282" x2="480" y2="318" stroke="#C8A030" stroke-width="10" stroke-linecap="round"/>
  <!-- Grip end cap -->
  <circle cx="480" cy="318" r="9"   fill="#C8A030"/>
  <circle cx="480" cy="318" r="5.5" fill="#ECC850"/>

  <!-- ══ ROPE ══ -->
  <path d="M 300 256 C 298 295 302 340 300 375" stroke="#8A6808" stroke-width="3.5" stroke-linecap="round" fill="none"/>
  <path d="M 299 256 C 297 295 301 340 299 375" stroke="rgba(220,185,65,0.30)" stroke-width="1.6" stroke-linecap="round" fill="none"/>
  <!-- Rope twist texture -->
  <path d="M 301 268 C 296 274 304 280 299 286 C 294 292 302 298 297 304 C 292 310 300 316 295 322 C 290 328 298 334 293 340 C 288 346 296 352 291 358 C 286 364 294 370" stroke="rgba(95,68,8,0.32)" stroke-width="1.4" stroke-linecap="round" fill="none"/>

  <!-- ══ ROOF ══ -->
  <!-- Roof drop shadow -->
  <polygon points="86,210 300,58 514,210" fill="rgba(50,35,4,0.24)" transform="translate(5,6)"/>
  <!-- Left face (shadow) -->
  <polygon points="300,58 84,208 300,208" fill="url(#roofL)"/>
  <!-- Right face (light) -->
  <polygon points="300,58 516,208 300,208" fill="url(#roofR)"/>

  <!-- Horizontal plank lines clipped to each face -->
  <g clip-path="url(#rRight)">
    <rect x="84" y="78"  width="440" height="4" fill="rgba(0,0,0,0.11)"/>
    <rect x="84" y="100" width="440" height="4" fill="rgba(0,0,0,0.11)"/>
    <rect x="84" y="122" width="440" height="4" fill="rgba(0,0,0,0.11)"/>
    <rect x="84" y="144" width="440" height="4" fill="rgba(0,0,0,0.11)"/>
    <rect x="84" y="166" width="440" height="4" fill="rgba(0,0,0,0.10)"/>
    <rect x="84" y="188" width="440" height="3" fill="rgba(0,0,0,0.09)"/>
  </g>
  <g clip-path="url(#rLeft)">
    <rect x="84" y="78"  width="220" height="4" fill="rgba(255,255,255,0.07)"/>
    <rect x="84" y="100" width="220" height="4" fill="rgba(255,255,255,0.07)"/>
    <rect x="84" y="122" width="220" height="4" fill="rgba(255,255,255,0.07)"/>
    <rect x="84" y="144" width="220" height="4" fill="rgba(255,255,255,0.06)"/>
    <rect x="84" y="166" width="220" height="3" fill="rgba(255,255,255,0.06)"/>
    <rect x="84" y="188" width="220" height="3" fill="rgba(255,255,255,0.05)"/>
  </g>

  <!-- Ridge centre line -->
  <line x1="300" y1="58" x2="300" y2="208" stroke="rgba(0,0,0,0.18)" stroke-width="4"/>

  <!-- Eave beam at base of roof -->
  <rect x="80"  y="205" width="440" height="12" rx="5" fill="#9A7810"/>
  <rect x="83"  y="206" width="434" height="8"  rx="4" fill="#D4AC32" fill-opacity="0.52"/>

  <!-- Ridge cap / finial -->
  <rect x="293" y="50" width="14" height="16" rx="3.5" fill="#9A7810"/>
  <rect x="294" y="51" width="12" height="13" rx="3" fill="#D4AC32" fill-opacity="0.62"/>
  <circle cx="300" cy="48" r="9"   fill="#B89020"/>
  <circle cx="300" cy="48" r="5.5" fill="#ECC840"/>
  <circle cx="300" cy="48" r="2.5" fill="#FFFAC0"/>

  <!-- ══ SPARKLES ══ -->
  <g filter="url(#sg)">
    <!-- Large 4-pointed diamond sparkles matching reference -->
    <g transform="translate(88,188)" opacity="0.92">
      <line x1="0" y1="-15" x2="0" y2="15" stroke="#FFE566" stroke-width="2.8" stroke-linecap="round"/>
      <line x1="-15" y1="0" x2="15" y2="0" stroke="#FFE566" stroke-width="2.8" stroke-linecap="round"/>
      <line x1="-9" y1="-9" x2="9" y2="9" stroke="#FFE566" stroke-width="1.6" stroke-linecap="round" opacity="0.46"/>
      <line x1="9" y1="-9" x2="-9" y2="9" stroke="#FFE566" stroke-width="1.6" stroke-linecap="round" opacity="0.46"/>
    </g>
    <g transform="translate(512,178)" opacity="0.80">
      <line x1="0" y1="-12" x2="0" y2="12" stroke="#FFD040" stroke-width="2.4" stroke-linecap="round"/>
      <line x1="-12" y1="0" x2="12" y2="0" stroke="#FFD040" stroke-width="2.4" stroke-linecap="round"/>
      <line x1="-8" y1="-8" x2="8" y2="8" stroke="#FFD040" stroke-width="1.4" stroke-linecap="round" opacity="0.44"/>
      <line x1="8" y1="-8" x2="-8" y2="8" stroke="#FFD040" stroke-width="1.4" stroke-linecap="round" opacity="0.44"/>
    </g>
    <g transform="translate(62,338)" opacity="0.78">
      <line x1="0" y1="-11" x2="0" y2="11" stroke="#FFC840" stroke-width="2.2" stroke-linecap="round"/>
      <line x1="-11" y1="0" x2="11" y2="0" stroke="#FFC840" stroke-width="2.2" stroke-linecap="round"/>
      <line x1="-7" y1="-7" x2="7" y2="7" stroke="#FFC840" stroke-width="1.3" stroke-linecap="round" opacity="0.42"/>
      <line x1="7" y1="-7" x2="-7" y2="7" stroke="#FFC840" stroke-width="1.3" stroke-linecap="round" opacity="0.42"/>
    </g>
    <g transform="translate(536,348)" opacity="0.70">
      <line x1="0" y1="-10" x2="0" y2="10" stroke="#FFE566" stroke-width="2.0" stroke-linecap="round"/>
      <line x1="-10" y1="0" x2="10" y2="0" stroke="#FFE566" stroke-width="2.0" stroke-linecap="round"/>
      <line x1="-6.5" y1="-6.5" x2="6.5" y2="6.5" stroke="#FFE566" stroke-width="1.2" stroke-linecap="round" opacity="0.42"/>
      <line x1="6.5" y1="-6.5" x2="-6.5" y2="6.5" stroke="#FFE566" stroke-width="1.2" stroke-linecap="round" opacity="0.42"/>
    </g>
    <g transform="translate(165,248)" opacity="0.84">
      <line x1="0" y1="-9" x2="0" y2="9" stroke="#FFF0A0" stroke-width="1.9" stroke-linecap="round"/>
      <line x1="-9" y1="0" x2="9" y2="0" stroke="#FFF0A0" stroke-width="1.9" stroke-linecap="round"/>
      <line x1="-6" y1="-6" x2="6" y2="6" stroke="#FFF0A0" stroke-width="1.1" stroke-linecap="round" opacity="0.44"/>
      <line x1="6" y1="-6" x2="-6" y2="6" stroke="#FFF0A0" stroke-width="1.1" stroke-linecap="round" opacity="0.44"/>
    </g>
    <g transform="translate(434,272)" opacity="0.80">
      <line x1="0" y1="-9" x2="0" y2="9" stroke="#FFE566" stroke-width="1.8" stroke-linecap="round"/>
      <line x1="-9" y1="0" x2="9" y2="0" stroke="#FFE566" stroke-width="1.8" stroke-linecap="round"/>
      <line x1="-6" y1="-6" x2="6" y2="6" stroke="#FFE566" stroke-width="1.1" stroke-linecap="round" opacity="0.42"/>
      <line x1="6" y1="-6" x2="-6" y2="6" stroke="#FFE566" stroke-width="1.1" stroke-linecap="round" opacity="0.42"/>
    </g>
    <g transform="translate(350,148)" opacity="0.74">
      <line x1="0" y1="-8" x2="0" y2="8" stroke="#FFE566" stroke-width="1.7" stroke-linecap="round"/>
      <line x1="-8" y1="0" x2="8" y2="0" stroke="#FFE566" stroke-width="1.7" stroke-linecap="round"/>
    </g>
    <g transform="translate(248,160)" opacity="0.70">
      <line x1="0" y1="-7" x2="0" y2="7" stroke="#FFF0A0" stroke-width="1.5" stroke-linecap="round"/>
      <line x1="-7" y1="0" x2="7" y2="0" stroke="#FFF0A0" stroke-width="1.5" stroke-linecap="round"/>
    </g>
    <!-- Dot sparkles -->
    <circle cx="115" cy="265" r="3.5" fill="#FFE566" fill-opacity="0.82"/>
    <circle cx="484" cy="300" r="3.0" fill="#FFD040" fill-opacity="0.76"/>
    <circle cx="192" cy="142" r="2.8" fill="#FFF0A0" fill-opacity="0.78"/>
    <circle cx="445" cy="158" r="3.0" fill="#FFE566" fill-opacity="0.72"/>
    <circle cx="68"  cy="458" r="2.8" fill="#FFC840" fill-opacity="0.70"/>
    <circle cx="530" cy="462" r="2.5" fill="#FFD040" fill-opacity="0.66"/>
    <circle cx="315" cy="128" r="2.8" fill="#FFF0A0" fill-opacity="0.76"/>
    <circle cx="48"  cy="290" r="2.5" fill="#FFE566" fill-opacity="0.64"/>
    <circle cx="552" cy="318" r="2.2" fill="#FFE566" fill-opacity="0.62"/>
    <circle cx="380" cy="112" r="2.2" fill="#FFF5A0" fill-opacity="0.68"/>
  </g>
</svg>
